<?xml version="1.0" encoding="iso-8859-1"?>
<!-- Uploaded to: SVG Repo, www.svgrepo.com, Generator: SVG Repo Mixer Tools -->
<svg fill="#000000" height="24px" width="24px" version="1.1" id="Layer_1" xmlns="http://www.w3.org/2000/svg" xmlns:xlink="http://www.w3.org/1999/xlink" 
	 viewBox="0 0 512 512" xml:space="preserve">
<path d="M512,122.085c0-9.425-7.641-17.067-17.067-17.067h-58.149V56.997c0-9.425-7.641-17.067-17.067-17.067H92.282
	c-9.425,0-17.067,7.641-17.067,17.067v48.021H17.067C7.641,105.018,0,112.66,0,122.085c0,14.178,0,321.951,0,332.918
	c0,9.425,7.641,17.067,17.067,17.067h477.867c9.425,0,17.067-7.641,17.067-17.067C512,441.997,512,136.717,512,122.085z
	 M109.349,74.064H402.65v30.954H109.349V74.064z M477.867,139.152v50.103c-39.676-25.126-90.857-20.107-122.854,6.072
	c-26.143,19.998-62.491,19.91-88.542-0.261c-38.468-29.784-92.199-29.784-130.667-0.005c-0.114,0.089-0.225,0.177-0.337,0.267
	c-31.89,24.401-77.069,18.104-101.333-13.006v-43.172C57.944,139.152,463.106,139.152,477.867,139.152z M34.133,437.936V227.842
	c37.556,23.813,86.939,21.799,122.566-5.781c0.113-0.088,0.223-0.175,0.333-0.265c26.142-19.995,62.489-19.911,88.542,0.261
	c40.656,31.48,96.193,28.109,131.004-0.262c31.878-24.392,77.016-18.105,101.287,12.949v203.194H34.133V437.936z"/>
<path d="M200.272,305.901l-41.264-29.975c-7.625-5.541-18.3-3.849-23.838,3.777c-5.54,7.627-3.849,18.299,3.777,23.839
	l35.955,26.119l-35.956,26.12c-7.625,5.54-9.316,16.212-3.776,23.839c5.541,7.63,16.218,9.314,23.839,3.777l41.263-29.975
	c46.732,50.41,146.107,41.957,177.747-15.531c2.821-5.123,2.821-11.335,0-16.459C346.387,263.959,247.019,255.474,200.272,305.901z
	 M224.778,329.66c27.256-30.417,90.203-30.413,117.454,0C314.976,360.08,252.027,360.073,224.778,329.66z"/>
</svg>